<?xml version="1.0" standalone="no"?>
<!DOCTYPE svg PUBLIC "-//W3C//DTD SVG 20010904//EN"
 "http://www.w3.org/TR/2001/REC-SVG-20010904/DTD/svg10.dtd">
<svg version="1.0" xmlns="http://www.w3.org/2000/svg"
 width="1280.000000pt" height="1280.000000pt" viewBox="0 0 1280.000000 1280.000000"
 preserveAspectRatio="xMidYMid meet">
<metadata>
Created by potrace 1.15, written by Peter Selinger 2001-2017
</metadata>
<g transform="translate(0.000000,1280.000000) scale(0.100000,-0.100000)"
fill="#cbd5e0" stroke="none">
<path d="M6095 12794 c-1461 -78 -2808 -622 -3905 -1577 -148 -129 -478 -459
-607 -607 -901 -1034 -1426 -2265 -1560 -3655 -24 -252 -24 -858 0 -1110 134
-1390 659 -2621 1560 -3655 129 -148 459 -478 607 -607 1035 -901 2265 -1426
3655 -1560 252 -24 858 -24 1110 0 1390 134 2620 659 3655 1560 148 129 478
459 607 607 901 1034 1426 2265 1560 3655 24 252 24 858 0 1110 -134 1390
-659 2621 -1560 3655 -129 148 -459 478 -607 607 -1031 898 -2277 1431 -3645
1558 -162 15 -716 27 -870 19z m620 -569 c753 -30 1581 -248 2294 -604 1647
-825 2817 -2389 3135 -4191 98 -553 115 -1155 50 -1715 -211 -1823 -1284
-3448 -2886 -4373 l-88 -51 -64 202 c-107 333 -446 1482 -524 1773 -16 60 -91
321 -166 579 -75 259 -231 801 -346 1205 -114 404 -294 1036 -399 1403 l-192
668 65 70 c176 190 375 475 438 627 22 52 34 60 67 42 10 -5 58 -21 107 -35
352 -103 766 -106 1131 -9 333 88 608 273 770 517 l67 99 -25 19 c-241 188
-565 328 -892 385 -384 66 -797 10 -1033 -141 -31 -20 -58 -35 -60 -33 -2 2
-19 57 -39 122 -56 184 -109 279 -222 394 -54 55 -61 67 -51 81 7 9 108 131
225 272 l211 255 84 -4 c104 -5 179 10 266 53 203 103 319 343 268 558 -26
109 -62 174 -140 253 -161 161 -376 198 -581 100 -128 -61 -226 -174 -266
-308 -18 -59 -21 -86 -16 -171 3 -57 12 -123 22 -149 l17 -47 -232 -286 c-127
-157 -233 -285 -236 -285 -3 0 -31 17 -62 39 -74 50 -202 114 -274 137 -32 10
-58 21 -58 25 0 4 33 144 74 311 41 167 81 335 91 373 l17 71 66 23 c356 124
462 565 202 836 -100 104 -221 155 -365 155 -256 0 -464 -180 -505 -436 -13
-79 -7 -143 21 -231 20 -62 81 -166 112 -192 9 -7 17 -21 17 -30 0 -9 -40
-187 -89 -396 -87 -373 -89 -380 -112 -377 -13 1 -82 3 -154 4 -137 2 -199
-10 -393 -76 l-73 -25 -8 22 c-41 104 -57 141 -91 204 -197 366 -523 698 -872
886 -208 112 -415 169 -623 171 -73 0 -164 -5 -207 -13 -78 -14 -78 -14 -78
-45 0 -49 29 -214 51 -296 83 -301 245 -613 459 -885 94 -119 274 -293 387
-374 105 -74 255 -151 335 -171 l47 -12 -38 -77 c-101 -201 -188 -469 -246
-758 -19 -94 -60 -344 -90 -555 -78 -542 -134 -826 -205 -1048 -52 -160 -192
-413 -353 -638 -191 -268 -340 -440 -852 -987 -524 -559 -687 -768 -778 -996
-160 -402 18 -913 492 -1412 251 -263 609 -504 880 -591 420 -135 964 -121
1408 35 339 120 596 334 713 593 109 244 154 566 185 1336 18 439 29 628 51
840 38 379 112 718 212 975 l40 100 11 -40 c69 -256 325 -1385 601 -2655 54
-250 138 -633 185 -850 48 -217 88 -411 90 -430 3 -30 57 -278 236 -1069 22
-100 37 -187 32 -191 -9 -8 -253 -69 -403 -99 -580 -119 -1255 -146 -1850 -75
-1592 189 -3030 1021 -3990 2309 -665 891 -1055 1937 -1140 3060 -15 193 -15
657 0 850 130 1704 972 3239 2335 4255 945 705 2080 1106 3255 1150 190 7 258
6 545 -5z"/>
</g>
</svg>
